<svg xmlns="http://www.w3.org/2000/svg" viewBox="0 0 1080 1080" fill="none" role="img" aria-label="CampusFound announcement">
  <defs>
    <filter id="mark-shadow" x="-15%" y="-10%" width="130%" height="140%">
      <feDropShadow dx="0" dy="6" stdDeviation="8" flood-color="#000" flood-opacity="0.18"/>
    </filter>
    <filter id="dot-glow" x="-80%" y="-80%" width="260%" height="260%">
      <feDropShadow dx="0" dy="2" stdDeviation="3" flood-color="#000" flood-opacity="0.12"/>
    </filter>
  </defs>
  <rect width="1080" height="1080" fill="#FAF8F3"/>
  <rect x="0" y="0" width="1080" height="12" fill="#C9A227"/>
  <circle cx="900" cy="200" r="280" fill="#1B2A4A" fill-opacity="0.05"/>
  <g transform="translate(390, 260) scale(4.6875)">
    <rect width="64" height="64" rx="14" fill="#1B2A4A" filter="url(#mark-shadow)"/>
    <circle cx="32" cy="32" r="27" stroke="#C9A227" stroke-opacity="0.22" stroke-width="0.75"/>
    <circle cx="22" cy="18" r="5" fill="#E8CE78" fill-opacity="0.35"/>
    <circle cx="27" cy="25" r="8.5" stroke="#C9A227" stroke-width="2.5"/>
    <path d="M33 31L40 38" stroke="#C9A227" stroke-width="2.5" stroke-linecap="round"/>
    <path d="M32 39C32 39 26 48 26 52C26 55 28.8 57 32 57C35.2 57 38 55 38 52C38 48 32 39 32 39Z" fill="#F5F0E6"/>
    <circle cx="27" cy="25" r="3.5" fill="#C9A227" filter="url(#dot-glow)"/>
  </g>
  <text x="540" y="660" text-anchor="middle" font-family="system-ui, -apple-system, 'Segoe UI', sans-serif" font-size="88" font-weight="700" letter-spacing="-1" fill="#1B2A4A">Campus</text>
  <text x="540" y="760" text-anchor="middle" font-family="system-ui, -apple-system, 'Segoe UI', sans-serif" font-size="88" font-weight="700" letter-spacing="-1" fill="#C9A227">Found</text>
  <text x="540" y="840" text-anchor="middle" font-family="system-ui, -apple-system, 'Segoe UI', sans-serif" font-size="36" font-weight="500" fill="#4A5568">Modernizing lost &amp; found on campus</text>
  <rect x="340" y="900" width="400" height="4" rx="2" fill="#C9A227"/>
</svg>
